<svg width="28" height="28" viewBox="0 0 28 28" fill="none" xmlns="http://www.w3.org/2000/svg">
<g clip-path="url(#clip0_606_8588)">
<path d="M26.2246 14C26.2246 13.6237 26.425 13.1206 26.6192 12.6332C26.9482 11.8081 27.3219 10.8719 27.0034 9.93213C26.6761 8.96612 25.7862 8.41663 25.0022 7.931C24.556 7.65538 24.0966 7.37012 23.8787 7.084C23.6591 6.79525 23.5235 6.30963 23.3791 5.79513C23.1385 4.93325 22.8637 3.95588 22.0229 3.36963C21.2021 2.79913 20.1679 2.84987 19.2535 2.89363C18.7092 2.91987 18.1466 2.94788 17.7677 2.82975C17.4221 2.72212 17.0214 2.41063 16.597 2.07988C15.8725 1.51463 15.0509 0.875 14 0.875C12.9491 0.875 12.1275 1.51463 11.4021 2.07988C10.9786 2.41063 10.5779 2.72212 10.2314 2.82975C9.8525 2.947 9.28987 2.91987 8.74562 2.89363C7.83387 2.85162 6.797 2.8 5.97625 3.37225C5.13537 3.95675 4.8615 4.935 4.62087 5.79688C4.47562 6.31138 4.34 6.797 4.12037 7.08575C3.90337 7.371 3.44312 7.65537 2.99775 7.93012C2.21375 8.41662 1.32387 8.967 0.995745 9.93213C0.67812 10.8719 1.05087 11.8081 1.37987 12.6332C1.57412 13.1206 1.77537 13.6237 1.77537 14C1.77537 14.3763 1.575 14.8794 1.38075 15.3668C1.05175 16.1919 0.67812 17.1281 0.99662 18.0679C1.32387 19.0339 2.21375 19.5834 2.99775 20.069C3.444 20.3446 3.90337 20.6299 4.12125 20.916C4.34087 21.2048 4.4765 21.6904 4.62087 22.2049C4.8615 23.0668 5.13625 24.0441 5.97712 24.6304C6.79787 25.2009 7.83037 25.1493 8.7465 25.1064C9.29162 25.081 9.85512 25.053 10.2322 25.1702C10.5779 25.2779 10.9786 25.5894 11.403 25.9201C12.1275 26.4854 12.9491 27.125 14 27.125C15.0509 27.125 15.8725 26.4854 16.5979 25.9201C17.0214 25.5894 17.4221 25.2779 17.7686 25.1702C18.1475 25.053 18.7092 25.0793 19.2544 25.1064C20.1661 25.1501 21.2039 25.2009 22.0237 24.6286C22.8646 24.0432 23.1385 23.0659 23.38 22.204C23.5244 21.6895 23.66 21.2039 23.8796 20.9151C24.0966 20.6299 24.5569 20.3455 25.0022 20.0699C25.7862 19.5834 26.6761 19.033 27.0042 18.0679C27.3219 17.1281 26.9491 16.1919 26.6201 15.3668C26.4259 14.8794 26.2246 14.3763 26.2246 14ZM24.9944 16.0142C25.2227 16.5856 25.4572 17.1771 25.3461 17.5053C25.2201 17.8754 24.6409 18.2341 24.0809 18.5806C23.5007 18.9394 22.8996 19.3113 22.4866 19.8546C22.0649 20.4094 21.8767 21.0805 21.6947 21.7306C21.525 22.3379 21.3482 22.9661 21.0227 23.1928C20.692 23.4237 20.0034 23.3905 19.3384 23.3573C18.6436 23.3231 17.9217 23.289 17.248 23.4981C16.5979 23.7002 16.051 24.1273 15.5207 24.5385C14.9704 24.969 14.4497 25.375 14 25.375C13.5502 25.375 13.0296 24.969 12.4784 24.5394C11.949 24.1273 11.4021 23.7011 10.7511 23.499C10.3302 23.3686 9.89187 23.3328 9.45175 23.3328C9.1875 23.3328 8.92325 23.3468 8.66162 23.3581C7.99662 23.3914 7.308 23.4237 6.97725 23.1936C6.65175 22.9661 6.47587 22.3388 6.30525 21.7315C6.12325 21.0823 5.93512 20.4102 5.51337 19.8555C5.0995 19.3121 4.49925 18.9394 3.91825 18.5806C3.35825 18.2341 2.779 17.8745 2.65387 17.5053C2.54275 17.1771 2.77812 16.5856 3.00562 16.0142C3.24887 15.4035 3.52537 14.7114 3.52537 14C3.52537 13.2886 3.24975 12.5965 3.00562 11.9858C2.77725 11.4144 2.54275 10.8229 2.65387 10.4948C2.77987 10.1246 3.35912 9.76587 3.91912 9.41938C4.49925 9.06063 5.10037 8.68875 5.51337 8.14538C5.93512 7.59062 6.12325 6.9195 6.30525 6.26937C6.475 5.66213 6.65087 5.03387 6.97725 4.80725C7.30712 4.57538 7.99487 4.60688 8.66162 4.64275C9.35637 4.67688 10.0782 4.711 10.752 4.50187C11.4021 4.29975 11.949 3.87275 12.4792 3.4615C13.0296 3.031 13.5502 2.625 14 2.625C14.4497 2.625 14.9704 3.031 15.5216 3.46062C16.051 3.87275 16.5979 4.29888 17.2489 4.501C17.9226 4.71012 18.6419 4.67425 19.3392 4.64187C20.0051 4.60775 20.6929 4.57538 21.0236 4.80638C21.3491 5.03387 21.525 5.66125 21.6956 6.2685C21.8776 6.91775 22.0657 7.58975 22.4875 8.1445C22.9014 8.68787 23.5016 9.06063 24.0826 9.41938C24.6426 9.76587 25.2219 10.1255 25.347 10.4948C25.4581 10.8229 25.2227 11.4144 24.9952 11.9858C24.752 12.5956 24.4755 13.2878 24.4755 14C24.4755 14.7122 24.7511 15.4035 24.9944 16.0142Z" fill="#1E222E"/>
<path d="M10.5 12.25C11.4665 12.25 12.25 11.4665 12.25 10.5C12.25 9.5335 11.4665 8.75 10.5 8.75C9.5335 8.75 8.75 9.5335 8.75 10.5C8.75 11.4665 9.5335 12.25 10.5 12.25Z" fill="#1E222E"/>
<path d="M17.5 19.25C18.4665 19.25 19.25 18.4665 19.25 17.5C19.25 16.5335 18.4665 15.75 17.5 15.75C16.5335 15.75 15.75 16.5335 15.75 17.5C15.75 18.4665 16.5335 19.25 17.5 19.25Z" fill="#1E222E"/>
<path d="M17.0754 8.87563C16.6597 8.62713 16.1234 8.76188 15.8749 9.17575L10.6249 17.9258C10.3764 18.3405 10.5102 18.8778 10.925 19.1263C11.065 19.2103 11.2207 19.2505 11.3739 19.2505C11.6714 19.2505 11.961 19.0991 12.1246 18.8261L17.3746 10.0761C17.624 9.66138 17.4892 9.12413 17.0754 8.87563Z" fill="#1E222E"/>
</g>
<defs>
<clipPath id="clip0_606_8588">
<rect width="28" height="28" fill="white"/>
</clipPath>
</defs>
</svg>
