<svg width="25" height="24" viewBox="0 0 25 24" fill="none" xmlns="http://www.w3.org/2000/svg">
<g clip-path="url(#clip0_632_6723)">
<path d="M9.19063 20.25H5C4.80109 20.25 4.61033 20.171 4.46967 20.0304C4.32902 19.8897 4.25 19.699 4.25 19.5V15.3094C4.24966 15.212 4.26853 15.1155 4.30553 15.0254C4.34253 14.9354 4.39694 14.8534 4.46563 14.7844L15.7156 3.53441C15.7854 3.46355 15.8686 3.40728 15.9603 3.36886C16.0521 3.33045 16.1505 3.31067 16.25 3.31067C16.3495 3.31067 16.4479 3.33045 16.5397 3.36886C16.6314 3.40728 16.7146 3.46355 16.7844 3.53441L20.9656 7.71567C21.0365 7.78545 21.0928 7.86864 21.1312 7.96038C21.1696 8.05212 21.1894 8.15058 21.1894 8.25004C21.1894 8.3495 21.1696 8.44796 21.1312 8.5397C21.0928 8.63144 21.0365 8.71463 20.9656 8.78441L9.71563 20.0344C9.6466 20.1031 9.56469 20.1575 9.4746 20.1945C9.38452 20.2315 9.28802 20.2504 9.19063 20.25V20.25Z" stroke="white" stroke-width="1.25" stroke-linecap="round" stroke-linejoin="round"/>
<path d="M13.25 6L18.5 11.25" stroke="white" stroke-width="1.25" stroke-linecap="round" stroke-linejoin="round"/>
<path d="M15.875 8.625L6.875 17.625" stroke="white" stroke-width="1.25" stroke-linecap="round" stroke-linejoin="round"/>
<path d="M9.45312 20.2031L4.29688 15.0469" stroke="white" stroke-width="1.25" stroke-linecap="round" stroke-linejoin="round"/>
</g>
<defs>
<clipPath id="clip0_632_6723">
<rect width="24" height="24" fill="white" transform="translate(0.5)"/>
</clipPath>
</defs>
</svg>
