<svg width="29" height="28" viewBox="0 0 29 28" fill="none" xmlns="http://www.w3.org/2000/svg">
<path d="M16.9583 22.75V17.5C16.9583 17.2679 16.8661 17.0454 16.702 16.8813C16.5379 16.7172 16.3153 16.625 16.0833 16.625H12.5833C12.3512 16.625 12.1286 16.7172 11.9645 16.8813C11.8004 17.0454 11.7083 17.2679 11.7083 17.5V22.75C11.7083 22.9821 11.6161 23.2046 11.452 23.3687C11.2879 23.5328 11.0653 23.625 10.8333 23.625H5.58325C5.35119 23.625 5.12863 23.5328 4.96453 23.3687C4.80044 23.2046 4.70825 22.9821 4.70825 22.75V12.6328C4.71021 12.5117 4.73638 12.3922 4.78522 12.2814C4.83406 12.1706 4.90458 12.0706 4.99263 11.9875L13.7426 4.03593C13.9039 3.88836 14.1146 3.80652 14.3333 3.80652C14.5519 3.80652 14.7626 3.88836 14.9239 4.03593L23.6739 11.9875C23.7619 12.0706 23.8324 12.1706 23.8813 12.2814C23.9301 12.3922 23.9563 12.5117 23.9583 12.6328V22.75C23.9583 22.9821 23.8661 23.2046 23.702 23.3687C23.5379 23.5328 23.3153 23.625 23.0833 23.625H17.8333C17.6012 23.625 17.3786 23.5328 17.2145 23.3687C17.0504 23.2046 16.9583 22.9821 16.9583 22.75Z" stroke="white" stroke-width="2" stroke-linecap="round" stroke-linejoin="round"/>
</svg>
