<svg width="25" height="24" viewBox="0 0 25 24" fill="none" xmlns="http://www.w3.org/2000/svg">
<g clip-path="url(#clip0_632_6735)">
<path d="M12.5 15C13.5355 15 14.375 14.1605 14.375 13.125C14.375 12.0895 13.5355 11.25 12.5 11.25C11.4645 11.25 10.625 12.0895 10.625 13.125C10.625 14.1605 11.4645 15 12.5 15Z" stroke="white" stroke-width="1.25" stroke-linecap="round" stroke-linejoin="round"/>
<path d="M12.5 15V17.25" stroke="white" stroke-width="1.25" stroke-linecap="round" stroke-linejoin="round"/>
<path d="M20 8.25H5C4.58579 8.25 4.25 8.58579 4.25 9V19.5C4.25 19.9142 4.58579 20.25 5 20.25H20C20.4142 20.25 20.75 19.9142 20.75 19.5V9C20.75 8.58579 20.4142 8.25 20 8.25Z" stroke="white" stroke-width="1.25" stroke-linecap="round" stroke-linejoin="round"/>
<path d="M9.125 8.25V4.875C9.125 3.97989 9.48058 3.12145 10.1135 2.48851C10.7465 1.85558 11.6049 1.5 12.5 1.5C13.3951 1.5 14.2535 1.85558 14.8865 2.48851C15.5194 3.12145 15.875 3.97989 15.875 4.875" stroke="white" stroke-width="1.25" stroke-linecap="round" stroke-linejoin="round"/>
</g>
<defs>
<clipPath id="clip0_632_6735">
<rect width="24" height="24" fill="white" transform="translate(0.5)"/>
</clipPath>
</defs>
</svg>
