<svg width="24" height="24" viewBox="0 0 24 24" fill="none" xmlns="http://www.w3.org/2000/svg">
<path d="M18.9308 5.64136C17.6561 5.05646 16.2892 4.62553 14.8599 4.37872C14.8339 4.37396 14.8079 4.38586 14.7945 4.40967C14.6187 4.72235 14.4239 5.13026 14.2876 5.45088C12.7503 5.22074 11.221 5.22074 9.71527 5.45088C9.57887 5.12314 9.37707 4.72235 9.20048 4.40967C9.18707 4.38666 9.16107 4.37475 9.13504 4.37872C7.70659 4.62474 6.33963 5.05567 5.06411 5.64136C5.05307 5.64612 5.04361 5.65407 5.03732 5.66438C2.44449 9.53801 1.73421 13.3164 2.08265 17.048C2.08423 17.0663 2.09447 17.0837 2.10867 17.0948C3.81934 18.3511 5.47642 19.1138 7.10273 19.6193C7.12876 19.6273 7.15634 19.6177 7.1729 19.5963C7.55761 19.0709 7.90054 18.517 8.19456 17.9345C8.21192 17.9003 8.19535 17.8599 8.15989 17.8464C7.61594 17.64 7.098 17.3885 6.59977 17.1028C6.56037 17.0798 6.55721 17.0234 6.59347 16.9964C6.69831 16.9178 6.80318 16.8361 6.9033 16.7536C6.92141 16.7385 6.94665 16.7353 6.96794 16.7448C10.2411 18.2392 13.7846 18.2392 17.0191 16.7448C17.0404 16.7345 17.0657 16.7377 17.0846 16.7528C17.1847 16.8353 17.2895 16.9178 17.3952 16.9964C17.4314 17.0234 17.4291 17.0798 17.3897 17.1028C16.8914 17.394 16.3735 17.64 15.8288 17.8456C15.7933 17.8591 15.7775 17.9003 15.7949 17.9345C16.0952 18.5162 16.4381 19.0701 16.8157 19.5955C16.8315 19.6177 16.8599 19.6273 16.8859 19.6193C18.5201 19.1138 20.1772 18.3511 21.8879 17.0948C21.9028 17.0837 21.9123 17.0671 21.9139 17.0488C22.3309 12.7347 21.2154 8.98725 18.9568 5.66517C18.9513 5.65407 18.9419 5.64612 18.9308 5.64136ZM8.68335 14.7759C7.69792 14.7759 6.88594 13.8712 6.88594 12.7601C6.88594 11.649 7.68217 10.7443 8.68335 10.7443C9.69239 10.7443 10.4965 11.657 10.4807 12.7601C10.4807 13.8712 9.68451 14.7759 8.68335 14.7759ZM15.329 14.7759C14.3435 14.7759 13.5316 13.8712 13.5316 12.7601C13.5316 11.649 14.3278 10.7443 15.329 10.7443C16.338 10.7443 17.1421 11.657 17.1264 12.7601C17.1264 13.8712 16.338 14.7759 15.329 14.7759Z" fill="white"/>
</svg>
